<svg width="72" height="53" viewBox="0 0 72 53" fill="none" xmlns="http://www.w3.org/2000/svg">
<g clip-path="url(#clip0_1_136)">
<path d="M2.35297 52.4367C1.72891 52.4367 1.13042 52.1888 0.689148 51.7475C0.247875 51.3063 0 50.7078 0 50.0837V17.4837C0.0126912 16.8682 0.266135 16.2821 0.705933 15.8513C1.14573 15.4205 1.73682 15.1792 2.35248 15.1792C2.96813 15.1792 3.55929 15.4205 3.99908 15.8513C4.43888 16.2821 4.69233 16.8682 4.70502 17.4837V50.0837C4.70502 50.7076 4.45723 51.3059 4.01617 51.7472C3.57512 52.1884 2.97685 52.4364 2.35297 52.4367Z" fill="black"/>
<path d="M52.7809 41.5788C52.1569 41.5788 51.5584 41.3309 51.1171 40.8896C50.6759 40.4483 50.428 39.8499 50.428 39.2258V2.3548C50.4407 1.73927 50.6941 1.15323 51.1339 0.722412C51.5736 0.291589 52.1648 0.050293 52.7805 0.050293C53.3961 0.050293 53.9873 0.291589 54.4271 0.722412C54.8669 1.15323 55.1202 1.73927 55.1329 2.3548V39.2288C55.1321 39.8522 54.884 40.4497 54.4431 40.8903C54.0021 41.3309 53.4043 41.5785 52.7809 41.5788Z" fill="black"/>
<path d="M69.2029 41.5786C68.5789 41.5786 67.9804 41.3307 67.5391 40.8894C67.0979 40.4482 66.85 39.8497 66.85 39.2256V17.4866C66.8627 16.8711 67.1161 16.2851 67.5559 15.8542C67.9957 15.4234 68.5868 15.1821 69.2025 15.1821C69.8181 15.1821 70.4093 15.4234 70.8491 15.8542C71.2889 16.2851 71.5422 16.8711 71.5549 17.4866V39.2256C71.5549 39.8495 71.3072 40.4479 70.8661 40.8891C70.4251 41.3303 69.8268 41.5783 69.2029 41.5786Z" fill="black"/>
<path d="M27.567 41.34C25.0179 41.3402 22.5261 40.5845 20.4065 39.1684C18.287 37.7524 16.6349 35.7396 15.6593 33.3847C14.6837 31.0297 14.4283 28.4384 14.9255 25.9383C15.4227 23.4382 16.6501 21.1416 18.4525 19.3391C20.2549 17.5366 22.5512 16.309 25.0513 15.8117C27.5513 15.3143 30.1427 15.5695 32.4978 16.5449C34.8528 17.5204 36.8657 19.1722 38.2819 21.2917C39.6981 23.4111 40.454 25.9029 40.454 28.452C40.4508 31.8689 39.0921 35.1451 36.676 37.5613C34.26 39.9776 30.9839 41.3365 27.567 41.34ZM27.567 19.84C25.8637 19.84 24.1987 20.3451 22.7824 21.2914C21.3662 22.2377 20.2624 23.5826 19.6106 25.1563C18.9587 26.7299 18.7881 28.4615 19.1204 30.1321C19.4527 31.8026 20.273 33.3372 21.4774 34.5416C22.6818 35.746 24.2163 36.5662 25.8869 36.8985C27.5574 37.2308 29.2891 37.0602 30.8627 36.4084C32.4363 35.7566 33.7813 34.6528 34.7276 33.2365C35.6739 31.8203 36.179 30.1553 36.179 28.452C36.1763 26.1687 35.2681 23.9798 33.6536 22.3653C32.0392 20.7508 29.8502 19.8426 27.567 19.84Z" fill="black"/>
</g>
<defs>
<clipPath id="clip0_1_136">
<rect width="72" height="53" fill="white"/>
</clipPath>
</defs>
</svg>
